<?xml version="1.0" encoding="UTF-8" standalone="no"?>
<svg width="100px" height="100px" viewBox="0 0 100 100" version="1.1" xmlns="http://www.w3.org/2000/svg" xmlns:xlink="http://www.w3.org/1999/xlink">
    <!-- Generator: Sketch 42 (36781) - http://www.bohemiancoding.com/sketch -->
    <title>Ova</title>
    <desc>Created with Sketch.</desc>
    <defs></defs>
    <g id="Page-1" stroke="none" stroke-width="1" fill="none" fill-rule="evenodd">
        <g id="Ova">
            <circle id="Oval-8" fill="#2188E5" cx="50" cy="50" r="50"></circle>
            <path d="M57.7598954,58.462407 L67.6163119,64.2261401 L67.6163119,52.5070647 C67.5880329,51.9173824 67.8841711,51.3598811 68.3868315,51.0565062 C68.8894919,50.7531314 69.5170752,50.7531314 70.0197356,51.0565062 C70.5223961,51.3598811 70.8185342,51.9173824 70.7902552,52.5070647 L70.7902552,70 L56.7355051,61.6496757 L35.290228,61.6496757 C31.8062962,61.6496757 29.0000013,58.9442282 29.0000013,55.4342352 L29.0000013,41.2834016 C28.998941,39.6071934 29.6630663,38.0001323 30.8445161,36.8200155 C32.0259658,35.6398987 33.6266632,34.9846922 35.290228,35.0002716 L64.6703635,35.0002716 C66.3429572,34.9937572 67.9495864,35.6570997 69.1366794,36.8443171 C70.3237725,38.0315345 70.9940487,39.6453358 71,41.3305711 C71,42.3118021 70.9962971,43.2679827 70.9962971,44.2449499 L50.1495727,53.050979 L38.1372552,45.381547 C37.3695508,44.8817718 37.1459856,43.8514588 37.6366523,43.0744902 C38.127319,42.2975217 39.1483223,42.0650951 39.9228628,42.5540452 L50.4426335,49.269695 L67.6163119,41.9970727 L67.6163119,41.2839346 C67.6163119,39.6284736 66.3139372,38.1982001 64.670628,38.1982001 L35.290228,38.1982001 C33.6466543,38.1982001 32.1739446,39.6284736 32.1739446,41.2839346 L32.1739446,55.4347682 C32.2047569,57.1071256 33.5576582,58.4473897 35.2177563,58.4501483 C42.7206938,58.4496153 50.2630412,58.4573436 57.7598954,58.462407 L57.7598954,58.462407 Z" id="Shape" fill="#FFFFFF"></path>
        </g>
    </g>
</svg>